<svg xmlns="http://www.w3.org/2000/svg" xmlns:xlink="http://www.w3.org/1999/xlink" version="1.2" baseProfile="tiny" x="0px" y="0px" viewBox="0 0 100 125" xml:space="preserve"><polygon points="22.5,66.036 25,63.536 27.5,66.036 27.5,70 32.5,70 32.5,63.964 28.536,60 32.5,56.036 32.5,50 27.5,50   27.5,53.964 25,56.464 22.5,53.964 22.5,50 17.5,50 17.5,56.036 21.464,60 17.5,63.964 17.5,70 22.5,70 "/><polygon points="72.5,66.036 75,63.536 77.5,66.036 77.5,70 82.5,70 82.5,63.964 78.536,60 82.5,56.036 82.5,50 77.5,50   77.5,53.964 75,56.464 72.5,53.964 72.5,50 67.5,50 67.5,56.036 71.464,60 67.5,63.964 67.5,70 72.5,70 "/><polygon points="47.5,65 40,65 40,50 35,50 35,70 47.5,70 "/><path d="M65,63.75c0-3.446-2.804-6.25-6.25-6.25h-2.5c-0.689,0-1.25-0.561-1.25-1.25S55.561,55,56.25,55H65v-5h-8.75  C52.804,50,50,52.804,50,56.25s2.804,6.25,6.25,6.25h2.5c0.689,0,1.25,0.561,1.25,1.25S59.439,65,58.75,65H50v5h8.75  C62.196,70,65,67.196,65,63.75z"/><path d="M85,30L60,5H25c-5.523,0-10,4.477-10,10v25H5v40h10v5c0,5.523,4.477,10,10,10h50c5.523,0,10-4.477,10-10v-5h10V40H85V30z   M57.5,13.107L76.893,32.5H57.5V13.107z M90,45v30H10V45H90z"/><text x="0" y="115" fill="#000000" font-size="5px" font-weight="bold" font-family="'Helvetica Neue', Helvetica, Arial-Unicode, Arial, Sans-serif">Created by Arthur Shlain</text><text x="0" y="120" fill="#000000" font-size="5px" font-weight="bold" font-family="'Helvetica Neue', Helvetica, Arial-Unicode, Arial, Sans-serif">from the Noun Project</text></svg>